<svg xmlns="http://www.w3.org/2000/svg" width="1177.164" height="758.297" viewBox="0 0 1177.164 758.297"><g id="Gruppe_24290" data-name="Gruppe 24290" transform="translate(-314.418 -159.94)"><g id="Gruppe_24288" data-name="Gruppe 24288" transform="translate(-13)"><g id="Gruppe_24286" data-name="Gruppe 24286"><g id="Gruppe_24283" data-name="Gruppe 24283" transform="translate(76 -47.024)"><g id="Gruppe_24281" data-name="Gruppe 24281" transform="translate(52 -6)"><g id="Sabine_in_trouble" transform="translate(343.553 -58.805)"><path id="Vereinigungsmenge_501" data-name="Vereinigungsmenge 501" d="M1.891,24.12l.208-.044a16.119,16.119,0,1,1,30.138-7.957c0,.529-.027,1.052-.076,1.568l.137-.029-.276,1.1a16.063,16.063,0,0,1-.66,2.612l-7.69,30.466Z" transform="matrix(0.438, -0.899, 0.899, 0.438, 95.764, 410.994)" fill="#bcd9fa"/><path id="Vereinigungsmenge_506" data-name="Vereinigungsmenge 506" d="M1.309,16.551l.142-.03A10.947,10.947,0,0,1,0,11.061a11.145,11.145,0,0,1,22.289,0q0,.544-.052,1.075l.1-.02-.193.76a10.912,10.912,0,0,1-.453,1.781L16.368,35.569Z" transform="matrix(0.848, -0.53, 0.53, 0.848, 107.242, 360.772)" fill="#bcd9fa"/><g id="Gruppe_16321" data-name="Gruppe 16321" transform="translate(132.977 365.232)"><ellipse id="Ellipse_1307" data-name="Ellipse 1307" cx="14.061" cy="14.061" rx="14.061" ry="14.061" transform="translate(257.417 180.949)" fill="#c77b5d"/><g id="Gruppe_16319" data-name="Gruppe 16319" transform="translate(0 0)"><g id="Gruppe_16317" data-name="Gruppe 16317" transform="translate(25.124 0)"><g id="Gruppe_635" data-name="Gruppe 635" transform="translate(0 0)"><g id="Gruppe_639" data-name="Gruppe 639" transform="matrix(0.995, -0.105, 0.105, 0.995, 0.223, 8.298)"><rect id="Rechteck_866" data-name="Rechteck 866" width="7.291" height="40.1" transform="translate(3.85 29.152)" fill="#432f49" stroke="#44304a" stroke-width="1"/><rect id="Rechteck_1172" data-name="Rechteck 1172" width="7.291" height="40.1" transform="translate(65.822 31.583)" fill="#432f49" stroke="#44304a" stroke-width="1"/><g id="Gruppe_452" data-name="Gruppe 452" transform="translate(0.004 34.943)"><g id="Gruppe_438" data-name="Gruppe 438" transform="translate(0 0)"><g id="Gruppe_327" data-name="Gruppe 327" transform="translate(0 0)"><g id="Gruppe_326" data-name="Gruppe 326"><g id="Gruppe_325" data-name="Gruppe 325" transform="translate(7.861 0)"><path id="Vereinigungsmenge_110" data-name="Vereinigungsmenge 110" d="M7.472,0c4.127,0,7.472,1.879,7.472,4.2s-3.345,4.2-7.472,4.2S0,6.513,0,4.2,3.345,0,7.472,0Z" transform="translate(64.465 49.008) rotate(-180)" fill="#624b31"/><path id="Vereinigungsmenge_106" data-name="Vereinigungsmenge 106" d="M20.2,109.775,21.89,90.49C9.207,86.347,0,73.953,0,59.308a34.1,34.1,0,0,1,1.215-9.057V0H61.164V50.248a34.118,34.118,0,0,1,1.216,9.059c0,14.113-8.549,26.135-20.521,30.7l-1.881,21.5Z" transform="translate(0 0)" fill="#c77b5d"/><g id="Vereinigungsmenge_111" data-name="Vereinigungsmenge 111" transform="translate(58.874 32.339)" fill="#c77b5d"><path d="M 6.32321310043335 23.89556503295898 L 6.323193073272705 23.89556503295898 C 3.112272977828979 23.89556503295898 0.5000030398368835 21.04174613952637 0.5000030398368835 17.533935546875 L 0.5000030398368835 6.861625194549561 C 0.5000030398368835 3.353815317153931 3.112262964248657 0.5000053644180298 6.323163032531738 0.5000053644180298 C 9.533323287963867 0.5000053644180298 12.14496326446533 3.353815317153931 12.14496326446533 6.861625194549561 L 12.14496326446533 17.533935546875 C 12.14496326446533 21.04174613952637 9.533332824707031 23.89556503295898 6.32321310043335 23.89556503295898 Z" stroke="none"/><path d="M 6.32321310043335 23.39556503295898 C 9.257633209228516 23.39556503295898 11.64496326446533 20.76604461669922 11.64496326446533 17.533935546875 L 11.64496326446533 6.861625194549561 C 11.64496326446533 3.629515409469604 9.257613182067871 1.00000536441803 6.323163032531738 1.00000536441803 C 3.387963056564331 1.00000536441803 1.000003099441528 3.629515409469604 1.000003099441528 6.861625194549561 L 1.000003099441528 17.533935546875 C 1.000003099441528 20.76604461669922 3.387983083724976 23.39556503295898 6.32321310043335 23.39556503295898 M 6.3232102394104 24.39556503295898 C 6.322997093200684 24.39556503295898 6.323406219482422 24.39556503295898 6.323193073272705 24.39556503295898 C 2.82895302772522 24.39556503295898 3.062744099224801e-06 21.32418632507324 3.062744099224801e-06 17.533935546875 L 3.062744099224801e-06 6.861625194549561 C 3.062744099224801e-06 3.071375370025635 2.82942008972168 -4.621475454769097e-06 6.323183059692383 5.377502475312212e-06 C 9.811793327331543 5.377502475312212e-06 12.64496326446533 3.071385383605957 12.64496326446533 6.861625194549561 L 12.64496326446533 17.533935546875 C 12.64496326446533 21.32395362854004 9.811527252197266 24.39556503295898 6.3232102394104 24.39556503295898 Z" stroke="none" fill="#c77b5d"/></g><g id="Rechteck_698" data-name="Rechteck 698" transform="translate(23.718 69.46)" fill="#5a2b11" stroke="#8d5c42" stroke-width="1"><rect width="14.944" height="2.299" stroke="none"/><rect x="0.5" y="0.5" width="13.944" height="1.299" fill="none"/></g><g id="Polygon_22" data-name="Polygon 22" transform="translate(27.741 56.734)" fill="#8d5c42"><path d="M 5.897221088409424 4.098144054412842 L 1.00000262260437 4.098144054412842 L 3.448611736297607 0.8333364725112915 L 5.897221088409424 4.098144054412842 Z" stroke="none"/><path d="M 3.448611736297607 1.666669130325317 L 2.000003337860107 3.598144054412842 L 4.897219657897949 3.598144054412842 L 3.448611736297607 1.666669130325317 M 3.448611736297607 3.814697265625e-06 L 6.897221565246582 4.598144054412842 L 1.9073486328125e-06 4.598144054412842 L 3.448611736297607 3.814697265625e-06 Z" stroke="none" fill="#8d5c42"/></g><ellipse id="Ellipse_336" data-name="Ellipse 336" cx="2.299" cy="2.299" rx="2.299" ry="2.299" transform="translate(19.784 36.303)" fill="#434038"/><ellipse id="Ellipse_338" data-name="Ellipse 338" cx="2.299" cy="2.299" rx="2.299" ry="2.299" transform="translate(49.672 36.303)" fill="#434038"/></g><g id="Vereinigungsmenge_107" data-name="Vereinigungsmenge 107" transform="translate(0 32.339)" fill="#c77b5d"><path d="M 6.32321310043335 23.89556503295898 L 6.323193073272705 23.89556503295898 C 3.112272977828979 23.89556503295898 0.5000030398368835 21.04174613952637 0.5000030398368835 17.533935546875 L 0.5000030398368835 6.861625194549561 C 0.5000030398368835 3.353815317153931 3.112262964248657 0.5000053644180298 6.323163032531738 0.5000053644180298 C 9.533323287963867 0.5000053644180298 12.14496326446533 3.353815317153931 12.14496326446533 6.861625194549561 L 12.14496326446533 17.533935546875 C 12.14496326446533 21.04174613952637 9.533332824707031 23.89556503295898 6.32321310043335 23.89556503295898 Z" stroke="none"/><path d="M 6.32321310043335 23.39556503295898 C 9.257633209228516 23.39556503295898 11.64496326446533 20.76604461669922 11.64496326446533 17.533935546875 L 11.64496326446533 6.861625194549561 C 11.64496326446533 3.629515409469604 9.257613182067871 1.00000536441803 6.323163032531738 1.00000536441803 C 3.387963056564331 1.00000536441803 1.000003099441528 3.629515409469604 1.000003099441528 6.861625194549561 L 1.000003099441528 17.533935546875 C 1.000003099441528 20.76604461669922 3.387983083724976 23.39556503295898 6.32321310043335 23.39556503295898 M 6.3232102394104 24.39556503295898 C 6.322997093200684 24.39556503295898 6.323406219482422 24.39556503295898 6.323193073272705 24.39556503295898 C 2.82895302772522 24.39556503295898 3.062744099224801e-06 21.32418632507324 3.062744099224801e-06 17.533935546875 L 3.062744099224801e-06 6.861625194549561 C 3.062744099224801e-06 3.071375370025635 2.82942008972168 -4.621475454769097e-06 6.323183059692383 5.377502475312212e-06 C 9.811793327331543 5.377502475312212e-06 12.64496326446533 3.071385383605957 12.64496326446533 6.861625194549561 L 12.64496326446533 17.533935546875 C 12.64496326446533 21.32395362854004 9.811527252197266 24.39556503295898 6.3232102394104 24.39556503295898 Z" stroke="none" fill="#c77b5d"/></g></g><path id="Pfad_6668" data-name="Pfad 6668" d="M0,1.9A11.118,11.118,0,0,1,6.066,0a9.554,9.554,0,0,1,5.7,1.9" transform="translate(18.609 29.806)" fill="none" stroke="#432f49" stroke-linecap="round" stroke-width="4"/><path id="Pfad_6669" data-name="Pfad 6669" d="M0,1.9A11.118,11.118,0,0,1,6.066,0a9.554,9.554,0,0,1,5.7,1.9" transform="translate(48.974 29.806)" fill="none" stroke="#432f49" stroke-linecap="round" stroke-width="4"/></g></g></g><path id="Vereinigungsmenge_171" data-name="Vereinigungsmenge 171" d="M16.4,42.521A16.412,16.412,0,0,1,1.37,19.545c.807-2.964,2.752-9,6.114-13.243A16.952,16.952,0,0,1,18.53,0S20.561,7.632,23.7,9.253A24.271,24.271,0,0,1,25.679,6.3,16.952,16.952,0,0,1,36.725,0s1.706,6.413,4.406,8.73A23.613,23.613,0,0,1,42.8,6.3,16.952,16.952,0,0,1,53.852,0s2.229,8.377,5.621,9.443l-.6.31a16.4,16.4,0,0,1-1.146,32.769Z" transform="translate(0 0)" fill="#432f49" stroke="#44304a" stroke-width="1"/><g id="Gruppe_480" data-name="Gruppe 480" transform="translate(12.195 66.143)"><g id="Pfad_6754" data-name="Pfad 6754" transform="translate(1.592 0)" fill="none"><path d="M12.134,0A12.134,12.134,0,1,1,0,12.134,12.134,12.134,0,0,1,12.134,0Z" stroke="none"/><path d="M 12.13422870635986 1.500003814697266 C 6.270498275756836 1.500003814697266 1.499998092651367 6.270503997802734 1.499998092651367 12.13424396514893 C 1.499998092651367 17.99798393249512 6.2705078125 22.76848411560059 12.13426876068115 22.76848411560059 C 17.99799919128418 22.76848411560059 22.76849937438965 17.99798393249512 22.76849937438965 12.13424396514893 C 22.76849937438965 6.270503997802734 17.99798965454102 1.500003814697266 12.13422870635986 1.500003814697266 M 12.1342306137085 3.814697265625e-06 C 12.13463878631592 3.814697265625e-06 12.13383960723877 3.814697265625e-06 12.13424873352051 3.814697265625e-06 C 18.8357982635498 3.814697265625e-06 24.26849937438965 5.432683944702148 24.26849937438965 12.13424396514893 C 24.26849937438965 18.83539581298828 18.83526229858398 24.26848411560059 12.13426685333252 24.26848411560059 C 12.1338586807251 24.26848411560059 12.13465785980225 24.26848411560059 12.13424873352051 24.26848411560059 C 5.432689666748047 24.26848411560059 -1.9073486328125e-06 18.83579444885254 -1.9073486328125e-06 12.13424396514893 C -1.9073486328125e-06 5.43309211730957 5.433233261108398 3.814697265625e-06 12.1342306137085 3.814697265625e-06 Z" stroke="none" fill="#672c23"/></g><g id="Pfad_6755" data-name="Pfad 6755" transform="translate(28.879 0)" fill="none"><path d="M12.135,0A12.135,12.135,0,1,1,0,12.135,12.135,12.135,0,0,1,12.135,0Z" stroke="none"/><path d="M 12.13478755950928 1.500001907348633 C 6.270748138427734 1.500001907348633 1.499998092651367 6.270742416381836 1.499998092651367 12.13478183746338 C 1.499998092651367 17.99882125854492 6.270748138427734 22.76956176757812 12.13478755950928 22.76956176757812 C 17.99882698059082 22.76956176757812 22.76957702636719 17.99882125854492 22.76957702636719 12.13478183746338 C 22.76957702636719 6.270742416381836 17.99882698059082 1.500001907348633 12.13478755950928 1.500001907348633 M 12.13478755950928 1.9073486328125e-06 C 18.83664703369141 1.9073486328125e-06 24.26957702636719 5.432931900024414 24.26957702636719 12.13478183746338 C 24.26957702636719 18.83664131164551 18.83664703369141 24.26956176757812 12.13478755950928 24.26956176757812 C 5.432937622070312 24.26956176757812 -1.9073486328125e-06 18.83663177490234 -1.9073486328125e-06 12.13478183746338 C -1.9073486328125e-06 5.43292236328125 5.432928085327148 1.9073486328125e-06 12.13478755950928 1.9073486328125e-06 Z" stroke="none" fill="#672c23"/></g><path id="Pfad_6751" data-name="Pfad 6751" d="M0,1.631A4.026,4.026,0,0,1,2.776,0a3.646,3.646,0,0,1,2.61,1.631" transform="translate(24.834 5.057)" fill="none" stroke="#672c23" stroke-linecap="round" stroke-width="1.5"/><path id="Pfad_6752" data-name="Pfad 6752" d="M0,0A15.451,15.451,0,0,1,1.846.375" transform="translate(53.15 9.239)" fill="none" stroke="#672c23" stroke-linecap="round" stroke-width="1.5"/><path id="Pfad_6753" data-name="Pfad 6753" d="M1.846,0A15.556,15.556,0,0,0,0,.375" transform="translate(0 9.612)" fill="none" stroke="#672c23" stroke-linecap="round" stroke-width="1.5"/></g></g><path id="Vereinigungsmenge_252" data-name="Vereinigungsmenge 252" d="M82.031,182.15H61.98v-.012c-5.893-.2-10.618-3.256-10.922-7.073H51.04V53.466H42.532V175.073h-.013c-.308,3.815-5.035,6.87-10.926,7.066v.011H10.939v-.012c-5.893-.2-10.618-3.252-10.922-7.065H0V3.643H0V0H93.568V3.447h0V175.065h-.013c-.308,3.819-5.034,6.877-10.926,7.074v.011Z" transform="translate(8.297 301.29)" fill="#887361"/><g id="Gruppe_637" data-name="Gruppe 637" transform="translate(1.277 150.83) rotate(-3)"><rect id="Rechteck_1163" data-name="Rechteck 1163" width="92.351" height="155.538" rx="6" transform="translate(0 0)" fill="#50553d"/></g><path id="Rechteck_1166" data-name="Rechteck 1166" d="M9,0H20.163a9,9,0,0,1,9,9V53.466a0,0,0,0,1,0,0H0a0,0,0,0,1,0,0V9A9,9,0,0,1,9,0Z" transform="matrix(0.985, -0.174, 0.174, 0.985, 80.868, 154.681)" fill="#50553d"/><path id="Rechteck_1167" data-name="Rechteck 1167" d="M0,0H25.594a6,6,0,0,1,6,6V156.753a0,0,0,0,1,0,0H0a0,0,0,0,1,0,0V0A0,0,0,0,1,0,0Z" transform="translate(61.887 146.437) rotate(-3)" fill="#c2a176"/><path id="Rechteck_1171" data-name="Rechteck 1171" d="M6,0H31.594a0,0,0,0,1,0,0V156.753a0,0,0,0,1,0,0H0a0,0,0,0,1,0,0V6A6,6,0,0,1,6,0Z" transform="translate(0 149.68) rotate(-3)" fill="#c2a176"/><path id="Differenzmenge_223" data-name="Differenzmenge 223" d="M15.536,31.075h0A15.539,15.539,0,0,1,0,15.54,15.541,15.541,0,0,1,15.536,0V31.073Z" transform="translate(37.546 160.073) rotate(-90)" fill="#c77b5d"/><g id="Gruppe_640" data-name="Gruppe 640" transform="translate(12.463 191.928)"><g id="Pfad_6919" data-name="Pfad 6919" fill="#ae916a"><path d="M 17.01196098327637 29.87848472595215 L 2.430280923843384 29.87848472595215 C 1.365920782089233 29.87848472595215 0.5000008344650269 29.01256370544434 0.5000008344650269 27.94821357727051 L 0.5000008344650269 2.430284261703491 C 0.5000008344650269 1.36592423915863 1.365920782089233 0.5000042915344238 2.430280923843384 0.5000042915344238 L 17.01196098327637 0.5000042915344238 C 18.07632064819336 0.5000042915344238 18.94224166870117 1.36592423915863 18.94224166870117 2.430284261703491 L 18.94224166870117 27.94821357727051 C 18.94224166870117 29.01256370544434 18.07632064819336 29.87848472595215 17.01196098327637 29.87848472595215 Z" stroke="none"/><path d="M 2.430280685424805 1.000003814697266 C 1.641620635986328 1.000003814697266 1 1.641624450683594 1 2.430274963378906 L 1 27.94821357727051 C 1 28.73686408996582 1.641620635986328 29.37848472595215 2.430280685424805 29.37848472595215 L 17.01196098327637 29.37848472595215 C 17.80062103271484 29.37848472595215 18.44224166870117 28.73686408996582 18.44224166870117 27.94821357727051 L 18.44224166870117 2.430274963378906 C 18.44224166870117 1.641624450683594 17.80062103271484 1.000003814697266 17.01196098327637 1.000003814697266 L 2.430280685424805 1.000003814697266 M 2.430280685424805 3.814697265625e-06 L 17.01196098327637 3.814697265625e-06 C 18.35417175292969 3.814697265625e-06 19.44224166870117 1.08807373046875 19.44224166870117 2.430274963378906 L 19.44224166870117 27.94821357727051 C 19.44224166870117 29.29041481018066 18.35417175292969 30.37848472595215 17.01196098327637 30.37848472595215 L 2.430280685424805 30.37848472595215 C 1.088069915771484 30.37848472595215 0 29.29041481018066 0 27.94821357727051 L 0 2.430274963378906 C 0 1.08807373046875 1.088069915771484 3.814697265625e-06 2.430280685424805 3.814697265625e-06 Z" stroke="none" fill="#ae916a"/></g><g id="Rechteck_1176" data-name="Rechteck 1176" fill="#9c825f" stroke="#9c825f" stroke-width="1"><path d="M0,0H19.442a0,0,0,0,1,0,0V8.151a4,4,0,0,1-4,4H4a4,4,0,0,1-4-4V0A0,0,0,0,1,0,0Z" stroke="none"/><path d="M.5.5H18.942a0,0,0,0,1,0,0V8.151a3.5,3.5,0,0,1-3.5,3.5H4a3.5,3.5,0,0,1-3.5-3.5V.5A0,0,0,0,1,.5.5Z" fill="none"/></g></g><g id="Gruppe_641" data-name="Gruppe 641" transform="translate(74.435 191.928)"><g id="Pfad_6919-2" data-name="Pfad 6919" transform="translate(0)" fill="#ae916a"><path d="M 17.01196098327637 29.87848472595215 L 2.430280923843384 29.87848472595215 C 1.365920782089233 29.87848472595215 0.5000008344650269 29.01256370544434 0.5000008344650269 27.94821357727051 L 0.5000008344650269 2.430284261703491 C 0.5000008344650269 1.36592423915863 1.365920782089233 0.5000042915344238 2.430280923843384 0.5000042915344238 L 17.01196098327637 0.5000042915344238 C 18.07632064819336 0.5000042915344238 18.94224166870117 1.36592423915863 18.94224166870117 2.430284261703491 L 18.94224166870117 27.94821357727051 C 18.94224166870117 29.01256370544434 18.07632064819336 29.87848472595215 17.01196098327637 29.87848472595215 Z" stroke="none"/><path d="M 2.430280685424805 1.000003814697266 C 1.641620635986328 1.000003814697266 1 1.641624450683594 1 2.430274963378906 L 1 27.94821357727051 C 1 28.73686408996582 1.641620635986328 29.37848472595215 2.430280685424805 29.37848472595215 L 17.01196098327637 29.37848472595215 C 17.80062103271484 29.37848472595215 18.44224166870117 28.73686408996582 18.44224166870117 27.94821357727051 L 18.44224166870117 2.430274963378906 C 18.44224166870117 1.641624450683594 17.80062103271484 1.000003814697266 17.01196098327637 1.000003814697266 L 2.430280685424805 1.000003814697266 M 2.430280685424805 3.814697265625e-06 L 17.01196098327637 3.814697265625e-06 C 18.35417175292969 3.814697265625e-06 19.44224166870117 1.08807373046875 19.44224166870117 2.430274963378906 L 19.44224166870117 27.94821357727051 C 19.44224166870117 29.29041481018066 18.35417175292969 30.37848472595215 17.01196098327637 30.37848472595215 L 2.430280685424805 30.37848472595215 C 1.088069915771484 30.37848472595215 0 29.29041481018066 0 27.94821357727051 L 0 2.430274963378906 C 0 1.08807373046875 1.088069915771484 3.814697265625e-06 2.430280685424805 3.814697265625e-06 Z" stroke="none" fill="#ae916a"/></g><g id="Rechteck_1176-2" data-name="Rechteck 1176" transform="translate(0)" fill="#9c825f" stroke="#9c825f" stroke-width="1"><path d="M0,0H19.442a0,0,0,0,1,0,0V8.151a4,4,0,0,1-4,4H4a4,4,0,0,1-4-4V0A0,0,0,0,1,0,0Z" stroke="none"/><path d="M.5.5H18.942a0,0,0,0,1,0,0V8.151a3.5,3.5,0,0,1-3.5,3.5H4a3.5,3.5,0,0,1-3.5-3.5V.5A0,0,0,0,1,.5.5Z" fill="none"/></g></g><path id="Polygon_58" data-name="Polygon 58" d="M17.012,0,34.024,10.936H0Z" transform="translate(27.044 178.561) rotate(-90)" fill="#ae916a"/><path id="Polygon_59" data-name="Polygon 59" d="M17.012,0,34.024,10.936H0Z" transform="translate(79.295 144.537) rotate(90)" fill="#ae916a"/></g><g id="Polygon_72" data-name="Polygon 72" transform="translate(13.16 97.28)" fill="#9a2020"><path d="M 6.481825351715088 6.790838241577148 L 0.8090155720710754 6.790838241577148 L 3.645420551300049 1.118028163909912 L 6.481825351715088 6.790838241577148 Z" stroke="none"/><path d="M 3.645420551300049 2.236068248748779 L 1.618035316467285 6.290838241577148 L 5.672805786132812 6.290838241577148 L 3.645420551300049 2.236068248748779 M 3.645420551300049 -1.9073486328125e-06 L 7.290840625762939 7.290838241577148 L 4.76837158203125e-07 7.290838241577148 L 3.645420551300049 -1.9073486328125e-06 Z" stroke="none" fill="#9a2020"/></g><g id="Polygon_73" data-name="Polygon 73" transform="translate(79.624 89.989)" fill="#9a2020"><path d="M 7.635459899902344 6.790838241577148 L 0.8705233335494995 6.790838241577148 L 4.252991676330566 0.9923210144042969 L 7.635459899902344 6.790838241577148 Z" stroke="none"/><path d="M 4.252991676330566 1.984633922576904 L 1.741039276123047 6.290838241577148 L 6.764944076538086 6.290838241577148 L 4.252991676330566 1.984633922576904 M 4.252991676330566 -1.9073486328125e-06 L 8.5059814453125 7.290838241577148 L 1.9073486328125e-06 7.290838241577148 L 4.252991676330566 -1.9073486328125e-06 Z" stroke="none" fill="#9a2020"/></g></g><g id="Gruppe_16318" data-name="Gruppe 16318" transform="translate(61.871 103.514)"><path id="Vereinigungsmenge_504" data-name="Vereinigungsmenge 504" d="M21.369,12.739l-17.739,0c-.084.006-.169.009-.255.009A3.376,3.376,0,0,1,2.42,6.136L19.013.616A6.376,6.376,0,1,1,21.75,12.75C21.622,12.75,21.495,12.746,21.369,12.739Z" transform="translate(0.001)" fill="#fff"/><path id="Differenzmenge_632" data-name="Differenzmenge 632" d="M21.738,8.013c-.125,0-.253,0-.382-.011L3.619,8c-.1.006-.179.009-.256.009A3.374,3.374,0,0,1,0,4.92L27.9,0a6.4,6.4,0,0,1,.212,1.636,6.334,6.334,0,0,1-1.868,4.509A6.333,6.333,0,0,1,21.738,8.013Z" transform="translate(0 4.737)" fill="#e4e4e4"/><path id="Polygon_159" data-name="Polygon 159" d="M1.5,0,3,2.625H0Z" transform="translate(21.352 3.846) rotate(-8)" fill="#e4e4e4"/><path id="Polygon_160" data-name="Polygon 160" d="M1.5,0,3,2.625H0Z" transform="translate(2.226 7.652) rotate(-8)" fill="#e4e4e4"/></g></g></g></g><g id="Gruppe_24277" data-name="Gruppe 24277" transform="translate(7.049 48)"><g id="Gruppe_24289" data-name="Gruppe 24289"><path id="Polygon_10" data-name="Polygon 10" d="M197.56,0l65.853,113.953L197.56,227.906H65.853L0,113.953,65.853,0Z" transform="translate(192.369 520.278) rotate(-30)" fill="#bcd9fa"/><path id="Polygon_11" data-name="Polygon 11" d="M197.56,0l65.853,113.953L197.56,227.906H65.853L0,113.953,65.853,0Z" transform="translate(312.102 725.889) rotate(-30)" fill="#bcd9fa"/><path id="Polygon_12" data-name="Polygon 12" d="M197.56,0l65.853,113.953L197.56,227.906H65.853L0,113.953,65.853,0Z" transform="translate(550.743 725.889) rotate(-30)" fill="#bcd9fa"/><path id="Polygon_13" data-name="Polygon 13" d="M197.56,0l65.853,113.953L197.56,227.906H65.853L0,113.953,65.853,0Z" transform="translate(671.302 520.278) rotate(-30)" fill="#bcd9fa"/><path id="Polygon_14" data-name="Polygon 14" d="M197.56,0l65.853,113.953L197.56,227.906H65.853L0,113.953,65.853,0Z" transform="translate(909.246 520.278) rotate(-30)" fill="#bcd9fa"/><path id="Polygon_15" data-name="Polygon 15" d="M197.56,0l65.853,113.953L197.56,227.906H65.853L0,113.953,65.853,0Z" transform="translate(1027.457 314.493) rotate(-30)" fill="#bcd9fa"/><path id="Pfad_46134" data-name="Pfad 46134" d="M24.335,14.558C26.25,11.4,27.5,9.176,30.343,6.587,36.1,1.356,44.118-1.394,50.525.71c3.982,1.32,5.75,4.543,5.07,8.735C53.78,19.975,39.726,28.27,29.84,28.755a1.7,1.7,0,0,0-.458.051,48.215,48.215,0,0,0-4.145-12.339,18.672,18.672,0,0,0-.9-1.908M19.68,32.5l-.033.05a29.928,29.928,0,0,1-9.333,5.067C5.121,38.931-.6,34.127.051,28.531c.489-4.069,3.873-6.938,7.506-8.364A28.178,28.178,0,0,1,14.9,18.5q2.388,7,4.781,14" transform="matrix(0.485, 0.875, -0.875, 0.485, 541.911, 748.566)" fill="#fff" fill-rule="evenodd"/></g></g><g id="Gruppe_861" data-name="Gruppe 861" transform="matrix(0.891, -0.454, 0.454, 0.891, -85.4, 306.528)"><path id="Pfad_1123" data-name="Pfad 1123" d="M29.155,25.357c3.705-.033,6.225-.035,9.919-1.174,7.417-2.329,13.838-7.868,15.219-14.466.878-4.062-.975-7.268-4.949-8.761C39.318-2.8,25.068,5.153,19.683,13.466a1.826,1.826,0,0,0-.267.355,50.294,50.294,0,0,1,8.578,9.811c.408.555.781,1.121,1.162,1.725M11.313,20.343l-.039.008c-4.2,1.8-7.2,3.606-9.077,5.484-3.788,3.8-2.535,11.188,2.664,13.453,3.748,1.623,7.931.17,10.969-2.286a27.154,27.154,0,0,0,5.159-5.452c-3.2-3.742-6.436-7.476-9.675-11.208" transform="matrix(-0.574, 0.819, -0.819, -0.574, 350.338, 379.873)" fill="#fff" fill-rule="evenodd"/><path id="Pfad_1124" data-name="Pfad 1124" d="M24.335,14.558C26.25,11.4,27.5,9.176,30.343,6.587,36.1,1.356,44.118-1.394,50.525.71c3.982,1.32,5.75,4.543,5.07,8.735C53.78,19.975,39.726,28.27,29.84,28.755a1.7,1.7,0,0,0-.458.051,48.215,48.215,0,0,0-4.145-12.339,18.672,18.672,0,0,0-.9-1.908M19.68,32.5l-.033.05a29.928,29.928,0,0,1-9.333,5.067C5.121,38.931-.6,34.127.051,28.531c.489-4.069,3.873-6.938,7.506-8.364A28.178,28.178,0,0,1,14.9,18.5q2.388,7,4.781,14" transform="matrix(-0.574, 0.819, -0.819, -0.574, 300.798, 429.818)" fill="#fff" fill-rule="evenodd"/><path id="Pfad_1125" data-name="Pfad 1125" d="M25.975,29.678c3.463-1.221,5.857-2.051,8.929-4.343,6.25-4.694,10.469-12.043,9.61-18.739C43.972,2.482,41.174.066,36.894,0,26.214-.246,15.4,12,13.1,21.6a4.539,4.539,0,0,0-.163.462,50.594,50.594,0,0,1,11.379,6.378c.55.4,1.11.841,1.66,1.24M7.489,30.9l-.04.008c-3.38,3.082-5.6,5.8-6.729,8.206-2.341,4.832,1.3,11.383,6.934,11.769,4.073.319,7.557-2.485,9.617-5.765a28.824,28.824,0,0,0,3.075-6.86c-4.3-2.45-8.6-4.9-12.857-7.358" transform="translate(337.813 553.85) rotate(178)" fill="#fff" fill-rule="evenodd"/><path id="Pfad_1126" data-name="Pfad 1126" d="M19,21.141c.854-3.545,1.411-6.051,3.331-9.386C26.2,4.989,33.017-.077,39.731,0c4.193.04,6.884,2.562,7.492,6.792,1.48,10.58-9.349,22.738-18.673,26.182-.116.066-.228.132-.386.207a51.027,51.027,0,0,0-7.694-10.5c-.486-.5-.972-1-1.466-1.536m1.056,18.52a.04.04,0,0,0-.033.049c-2.657,3.7-5.123,6.254-7.352,7.649C8.143,50.249,1.2,47.4.151,41.855c-.781-4.023,1.566-7.789,4.605-10.246a29.5,29.5,0,0,1,6.429-3.834C14.13,31.74,17.117,35.7,20.06,39.661" transform="matrix(-0.934, 0.358, -0.358, -0.934, 272.243, 571.265)" fill="#fff" fill-rule="evenodd"/></g><g id="Gruppe_24278" data-name="Gruppe 24278" transform="matrix(0.438, -0.899, 0.899, 0.438, 30.781, 878.501)"><path id="Pfad_1122" data-name="Pfad 1122" d="M27.637,8.984c2.682-2.553,4.493-4.332,7.931-6.1,6.923-3.507,15.391-4.044,20.974-.32,3.5,2.314,4.414,5.926,2.593,9.754C54.626,21.987,38.9,26.269,29.2,24.115c-.133-.016-.262-.031-.435-.039a48.473,48.473,0,0,0-.744-13.036c-.1-.662-.238-1.359-.382-2.056m-9.21,16.1-.039.008c-4.274,1.642-7.7,2.428-10.347,2.415C2.7,27.443-1.6,21.28.577,16.055c1.527-3.811,5.536-5.7,9.429-6.068a27.31,27.31,0,0,1,7.488.3c.327,4.927.609,9.863.933,14.789" transform="matrix(-0.469, 0.883, -0.883, -0.469, 296.281, 300.473)" fill="#fff" fill-rule="evenodd"/><path id="Pfad_1123-2" data-name="Pfad 1123" d="M29.155,25.357c3.705-.033,6.225-.035,9.919-1.174,7.417-2.329,13.838-7.868,15.219-14.466.878-4.062-.975-7.268-4.949-8.761C39.318-2.8,25.068,5.153,19.683,13.466a1.826,1.826,0,0,0-.267.355,50.294,50.294,0,0,1,8.578,9.811c.408.555.781,1.121,1.162,1.725M11.313,20.343l-.039.008c-4.2,1.8-7.2,3.606-9.077,5.484-3.788,3.8-2.535,11.188,2.664,13.453,3.748,1.623,7.931.17,10.969-2.286a27.154,27.154,0,0,0,5.159-5.452c-3.2-3.742-6.436-7.476-9.675-11.208" transform="matrix(-0.574, 0.819, -0.819, -0.574, 350.338, 379.873)" fill="#fff" fill-rule="evenodd"/></g><path id="Pfad_46133" data-name="Pfad 46133" d="M25.975,29.678c3.463-1.221,5.857-2.051,8.929-4.343,6.25-4.694,10.469-12.043,9.61-18.739C43.972,2.482,41.174.066,36.894,0,26.214-.246,15.4,12,13.1,21.6a4.539,4.539,0,0,0-.163.462,50.594,50.594,0,0,1,11.379,6.378c.55.4,1.11.841,1.66,1.24M7.489,30.9l-.04.008c-3.38,3.082-5.6,5.8-6.729,8.206-2.341,4.832,1.3,11.383,6.934,11.769,4.073.319,7.557-2.485,9.617-5.765a28.824,28.824,0,0,0,3.075-6.86c-4.3-2.45-8.6-4.9-12.857-7.358" transform="translate(669.969 747.615) rotate(44)" fill="#fff" fill-rule="evenodd"/><path id="Pfad_46135" data-name="Pfad 46135" d="M24.335,14.558C26.25,11.4,27.5,9.176,30.343,6.587,36.1,1.356,44.118-1.394,50.525.71c3.982,1.32,5.75,4.543,5.07,8.735C53.78,19.975,39.726,28.27,29.84,28.755a1.7,1.7,0,0,0-.458.051,48.215,48.215,0,0,0-4.145-12.339,18.672,18.672,0,0,0-.9-1.908M19.68,32.5l-.033.05a29.928,29.928,0,0,1-9.333,5.067C5.121,38.931-.6,34.127.051,28.531c.489-4.069,3.873-6.938,7.506-8.364A28.178,28.178,0,0,1,14.9,18.5q2.388,7,4.781,14" transform="translate(735.25 779.679) rotate(-3)" fill="#fff" fill-rule="evenodd"/></g></g><g id="Gruppe_24284" data-name="Gruppe 24284" transform="translate(877.846 553.583)"><path id="Pfad_44603" data-name="Pfad 44603" d="M349.633,0H0V349.633H349.633Z" fill="none"/><g id="Gruppe_23605" data-name="Gruppe 23605" transform="translate(54.854 40.3)"><g id="Gruppe_23552" data-name="Gruppe 23552" transform="translate(0 0)"><g id="KalleLupe"><g id="Gruppe_23539" data-name="Gruppe 23539"><g id="Gruppe_23548" data-name="Gruppe 23548"><g id="Gruppe_23110" data-name="Gruppe 23110" transform="translate(45.271)"><g id="Gruppe_16343" data-name="Gruppe 16343" transform="translate(0)"><g id="Gruppe_7244" data-name="Gruppe 7244"><g id="Gruppe_7246" data-name="Gruppe 7246"><g id="Gruppe_7225" data-name="Gruppe 7225"><g id="Gruppe_7207" data-name="Gruppe 7207"><g id="Gruppe_7206" data-name="Gruppe 7206"><g id="Gruppe_7205" data-name="Gruppe 7205"><path id="Pfad_1505" data-name="Pfad 1505" d="M3.525,37.4c7.871,4.922,19.3.846,25.517-9.1S33.927,6.287,26.056,1.365,15,5.671,8.776,15.621-4.346,32.476,3.525,37.4" transform="translate(45.438 173.201) rotate(173)" fill="#002163"/><path id="Pfad_1506" data-name="Pfad 1506" d="M64.75,0c47.43,0,61.593,58.192,65.336,81.176a69.63,69.63,0,0,1,.353,21.584c-5.087,33.724-32.159,37.072-64.789,37.072C29.393,139.832,0,138.672,0,90.357,0,90.357,0,0,64.75,0" transform="translate(149.515 269.752) rotate(180)" fill="#0069b4"/><path id="Pfad_1507" data-name="Pfad 1507" d="M22.241,0H55.7a8.786,8.786,0,0,1,8.456,6.269L71.112,29.19a1.89,1.89,0,0,1-3.617,1.1L60.535,7.367A5.029,5.029,0,0,0,55.7,3.78H22.241a5.035,5.035,0,0,0-4.5,2.756L3.574,34.264A1.89,1.89,0,0,1,.207,32.545L14.372,4.817A8.8,8.8,0,0,1,22.241,0" transform="translate(115.933 167.809) rotate(180)" fill="#bcdcf5"/><path id="Pfad_1508" data-name="Pfad 1508" d="M1.89,0A1.891,1.891,0,0,1,3.642,1.181C9.921,16.68,13.4,38.389,13.983,65.706c.433,20.281-.988,36.264-1,36.423a1.889,1.889,0,0,1-3.763-.341C9.274,101.161,14.725,38.6.139,2.6A1.89,1.89,0,0,1,1.89,0" transform="translate(85.236 267.878) rotate(180)" fill="#bcdcf5"/><path id="Pfad_1509" data-name="Pfad 1509" d="M5959.675,1448.7h-73.4v-3.78h73.4c22.093,0,40.069-18.971,40.069-42.291v-25.511c0-23.319-17.976-42.291-40.069-42.291h-73.4v-3.78h73.4c24.178,0,43.848,20.667,43.848,46.07v25.511c0,25.4-19.67,46.07-43.848,46.07" transform="translate(-5815.827 -1331.044)" fill="#002163"/><path id="Pfad_1510" data-name="Pfad 1510" d="M6194.956,1476.022h-9.045c-7.146,0-12.745-10.095-12.745-22.981s5.6-22.981,12.745-22.981h9.045v3.779h-9.045c-4.241,0-8.965,7.885-8.965,19.2s4.724,19.2,8.965,19.2h9.045Z" transform="translate(-6008.92 -1397.687)" fill="#002163"/><path id="Pfad_1511" data-name="Pfad 1511" d="M5788.04,1331.041h-73.4c-24.177,0-43.846,20.668-43.846,46.071v25.51c0,25.4,19.669,46.072,43.846,46.072h73.4c24.175,0,43.845-20.668,43.845-46.072v-25.51c0-25.4-19.67-46.071-43.845-46.071" transform="translate(-5670.795 -1331.041)" fill="#0069b4"/><path id="Pfad_1512" data-name="Pfad 1512" d="M5755.476,1470.7c-13.238,0-24.01-11.342-24.01-25.284v-25.51c0-13.942,10.772-25.285,24.01-25.285h73.4c13.243,0,24.013,11.344,24.013,25.285v25.51c0,13.942-10.77,25.284-24.013,25.284Z" transform="translate(-5711.63 -1373.834)" fill="#bcdcf5"/><path id="Pfad_1515" data-name="Pfad 1515" d="M6213.578,1430.055c-7.145,0-12.744,10.094-12.744,22.982s5.6,22.982,12.744,22.982,12.745-10.094,12.745-22.982-5.6-22.982-12.745-22.982" transform="translate(-6027.542 -1397.683)" fill="#002163"/><path id="Pfad_1517" data-name="Pfad 1517" d="M29.433,37.4c-7.871,4.922-19.3.846-25.518-9.1S-.969,6.287,6.9,1.365,17.959,5.671,24.182,15.621,37.3,32.476,29.433,37.4" transform="translate(162.879 171.29) rotate(180)" fill="#002163"/></g></g></g></g><g id="Gruppe_7228" data-name="Gruppe 7228" transform="translate(213.564 249.783) rotate(180)"><path id="Pfad_25266" data-name="Pfad 25266" d="M.675,13.058C2.09,8.3,5.583,4.592,11.055,2.025c5.064-2.378,9.872-2.667,14.283-.841,8.687,3.57,12.494,13.948,15.113,21.084.455,1.248.846,2.326,1.211,3.1l.808,1.718-10.3,4.833-.8-1.718c-.495-1.059-1.05-2.54-1.684-4.27-1.611-4.388-4.605-12.555-8.666-14.225-1.367-.567-3.041-.359-5.122.622-2.442,1.145-3.85,2.444-4.305,3.97-1.18,3.974,3.026,10.758,5.539,14.817a46.5,46.5,0,0,1,2.615,4.537l.8,1.715L10.243,42.2l-.805-1.714c-.367-.774-1.13-2-1.987-3.382C3.7,31.06-1.958,21.927.675,13.058" transform="translate(77.701 40.565) rotate(164)" fill="#002163"/><path id="Pfad_25267" data-name="Pfad 25267" d="M11.864,0A6.456,6.456,0,0,1,0,5.1Z" transform="matrix(0.921, -0.391, 0.391, 0.921, 58.313, 40.581)" fill="#002163"/><g id="Gruppe_7226" data-name="Gruppe 7226" transform="translate(8.604 36.268)"><path id="Pfad_25198" data-name="Pfad 25198" d="M51.04,67.08C36.308,63.437-1.928,46.31.076,28.936s49.061-5.524,55.769-15.784S51.04,0,51.04,0" transform="translate(0)" fill="none" stroke="#002163" stroke-linecap="round" stroke-width="4"/></g><path id="Pfad_25268" data-name="Pfad 25268" d="M25.566,12.783A12.783,12.783,0,1,1,12.781,0,12.784,12.784,0,0,1,25.566,12.783" transform="translate(0 53.271)" fill="#0069b4"/></g></g></g></g></g><path id="Pfad_42358" data-name="Pfad 42358" d="M5.539,14.3C9,14.3,12.819,12.7,19.04,12.7s16.991,7.679,19.7-.661S25.261,0,19.04,0,3.185,1.941.771,5.745,2.076,14.3,5.539,14.3Z" transform="matrix(-0.995, 0.105, -0.105, -0.995, 148.614, 82.219)" fill="#002163"/><g id="Gruppe_23111" data-name="Gruppe 23111" transform="translate(2.025 79.082)"><g id="Gruppe_23082" data-name="Gruppe 23082" transform="translate(34.91 76.518) rotate(-130)"><path id="Pfad_42350" data-name="Pfad 42350" d="M10.765,0A5.858,5.858,0,0,1,0,4.625Z" transform="matrix(-0.891, -0.454, 0.454, -0.891, 33.794, 15.636)" fill="#002163"/><path id="Pfad_42351" data-name="Pfad 42351" d="M.613,11.848C1.9,7.533,5.065,4.166,10.03,1.837c4.6-2.157,8.957-2.419,12.959-.763C30.871,4.314,34.326,13.73,36.7,20.2c.413,1.133.768,2.11,1.1,2.813l.733,1.559-9.349,4.385-.73-1.559c-.449-.961-.953-2.3-1.528-3.874-1.462-3.982-4.179-11.391-7.863-12.907-1.24-.514-2.759-.326-4.647.564-2.216,1.039-3.493,2.218-3.906,3.6-1.07,3.606,2.745,9.761,5.025,13.444a42.192,42.192,0,0,1,2.372,4.117l.729,1.556L9.294,38.29l-.731-1.555c-.333-.7-1.025-1.811-1.8-3.068C3.361,28.182-1.777,19.9.613,11.848" transform="matrix(0.695, 0.719, -0.719, 0.695, 27.543, 0)" fill="#002163"/></g><g id="Gruppe_23083" data-name="Gruppe 23083" transform="translate(8.316 47.613)"><path id="Pfad_25198-2" data-name="Pfad 25198" d="M2226.089,605.066s-8.542,16.033-8.964,16.444c-3.119,3.046-27.255,18.51-39.206,14.094-8.572-3.168-11.419-11.083-11.419-22.713s11.419-23.806,11.419-23.806" transform="translate(-2166.501 -589.085)" fill="none" stroke="#002163" stroke-linecap="round" stroke-width="4"/></g><path id="Pfad_42352" data-name="Pfad 42352" d="M6261.1,1888.079a11.6,11.6,0,1,1,11.6,11.6,11.6,11.6,0,0,1-11.6-11.6" transform="translate(-6256.685 -1795.701)" fill="#0069b4"/></g><circle id="Ellipse_1918" data-name="Ellipse 1918" cx="10.136" cy="10.136" r="10.136" transform="translate(88.518 42.717)" fill="#002163"/><g id="Gruppe_23112" data-name="Gruppe 23112" transform="matrix(-0.799, -0.602, 0.602, -0.799, 57.324, 160.648)"><g id="Gruppe_21693" data-name="Gruppe 21693" transform="translate(29.48 0)"><g id="Rechteck_10898" data-name="Rechteck 10898" transform="translate(3.845 48.706)" fill="#002163" stroke="#002163" stroke-width="1"><rect width="6.409" height="20.508" stroke="none"/><rect x="0.5" y="0.5" width="5.409" height="19.508" fill="none"/></g><g id="Rechteck_10899" data-name="Rechteck 10899" transform="translate(0)" fill="#002163" stroke="#002163" stroke-width="1"><rect width="14.099" height="58.96" rx="5" stroke="none"/><rect x="0.5" y="0.5" width="13.099" height="57.96" rx="4.5" fill="none"/></g></g><g id="Pfad_38021" data-name="Pfad 38021" transform="translate(0 65.368)" fill="#fff" opacity="0.7"><path d="M 35.88846588134766 68.77693939208984 C 31.44723129272461 68.77693939208984 27.14044189453125 67.90778350830078 23.08771324157715 66.19363403320312 C 19.1717357635498 64.53731536865234 15.65420722961426 62.16551208496094 12.63281917572021 59.14412307739258 C 9.611430168151855 56.12273788452148 7.239630699157715 52.60519409179688 5.58331298828125 48.6892204284668 C 3.869159936904907 44.63650131225586 3.000007152557373 40.3297004699707 3.000007152557373 35.88846588134766 C 3.000007152557373 31.44723129272461 3.869159936904907 27.14043045043945 5.58331298828125 23.08771324157715 C 7.239630699157715 19.1717357635498 9.611430168151855 15.65420722961426 12.63281917572021 12.63281917572021 C 15.65420722961426 9.611430168151855 19.1717357635498 7.239630699157715 23.08771324157715 5.58331298828125 C 27.14043045043945 3.869159936904907 31.44723129272461 3.000007152557373 35.88846588134766 3.000007152557373 C 40.3297004699707 3.000007152557373 44.63650131225586 3.869159936904907 48.6892204284668 5.58331298828125 C 52.60519409179688 7.239630699157715 56.12273788452148 9.611418724060059 59.14412307739258 12.6328067779541 C 62.16551208496094 15.65419483184814 64.53731536865234 19.1717357635498 66.19363403320312 23.08771324157715 C 67.90778350830078 27.14043045043945 68.77693939208984 31.44723129272461 68.77693939208984 35.88846588134766 C 68.77693939208984 40.3297004699707 67.90778350830078 44.63650131225586 66.19363403320312 48.6892204284668 C 64.53731536865234 52.60519409179688 62.16551208496094 56.12273788452148 59.14412307739258 59.14412307739258 C 56.12273788452148 62.16551208496094 52.60519409179688 64.53731536865234 48.6892204284668 66.19363403320312 C 44.63650131225586 67.90778350830078 40.3297004699707 68.77693939208984 35.88846588134766 68.77693939208984 Z" stroke="none"/><path d="M 35.88846588134766 65.77692413330078 C 52.3690185546875 65.77692413330078 65.77692413330078 52.3690185546875 65.77692413330078 35.88846588134766 C 65.77692413330078 19.40791130065918 52.3690185546875 6.000004291534424 35.88846588134766 6.000004291534424 C 19.40791130065918 6.000004291534424 6.000004291534424 19.40791130065918 6.000004291534424 35.88846588134766 C 6.000004291534424 52.3690185546875 19.40791130065918 65.77692413330078 35.88846588134766 65.77692413330078 M 35.88846588134766 71.77692413330078 C 16.06781959533691 71.77692413330078 4.342886313679628e-06 55.70911026000977 4.342886313679628e-06 35.88846588134766 C 4.342886313679628e-06 16.06781959533691 16.06781959533691 4.342886313679628e-06 35.88846588134766 4.342886313679628e-06 C 55.70911026000977 4.342886313679628e-06 71.77692413330078 16.06781959533691 71.77692413330078 35.88846588134766 C 71.77692413330078 55.70911026000977 55.70911026000977 71.77692413330078 35.88846588134766 71.77692413330078 Z" stroke="none" fill="#d11355"/></g><g id="Pfad_44602" data-name="Pfad 44602" transform="translate(0 65.368)" fill="none"><path d="M35.888,71.777A35.888,35.888,0,1,0,0,35.888,35.888,35.888,0,0,0,35.888,71.777Z" stroke="none"/><path d="M 35.88846588134766 65.77692413330078 C 52.3690185546875 65.77692413330078 65.77692413330078 52.3690185546875 65.77692413330078 35.88846588134766 C 65.77692413330078 19.40791130065918 52.3690185546875 6.000004291534424 35.88846588134766 6.000004291534424 C 19.40791130065918 6.000004291534424 6.000004291534424 19.40791130065918 6.000004291534424 35.88846588134766 C 6.000004291534424 52.3690185546875 19.40791130065918 65.77692413330078 35.88846588134766 65.77692413330078 M 35.88846588134766 71.77692413330078 C 16.06781959533691 71.77692413330078 4.342886313679628e-06 55.70911026000977 4.342886313679628e-06 35.88846588134766 C 4.342886313679628e-06 16.06781959533691 16.06781959533691 4.342886313679628e-06 35.88846588134766 4.342886313679628e-06 C 55.70911026000977 4.342886313679628e-06 71.77692413330078 16.06781959533691 71.77692413330078 35.88846588134766 C 71.77692413330078 55.70911026000977 55.70911026000977 71.77692413330078 35.88846588134766 71.77692413330078 Z" stroke="none" fill="#ea4929"/></g></g><circle id="Ellipse_1917" data-name="Ellipse 1917" cx="6.45" cy="6.45" r="6.45" transform="translate(142.164 46.403)" fill="#002163"/></g></g></g></g></g></g><g id="Gruppe_24285" data-name="Gruppe 24285" transform="translate(132 -32.317)"><path id="Pfad_46136" data-name="Pfad 46136" d="M4227.078,5564.974V5394.333" transform="translate(-3024 -5200.075)" fill="none" stroke="#002163" stroke-linecap="round" stroke-width="4"/><path id="Polygon_161" data-name="Polygon 161" d="M35,0,70,88H0Z" transform="translate(1295 194.079) rotate(90)" fill="#ea4929"/></g></g><g id="Gruppe_24287" data-name="Gruppe 24287" transform="translate(681.439 393.382) rotate(-7)"><g id="Gruppe_16308" data-name="Gruppe 16308" transform="translate(0 0)"><path id="Pfad_10055" data-name="Pfad 10055" d="M20.4,0H167.4a20.43,20.43,0,0,1,20.4,20.458V122.75a20.43,20.43,0,0,1-20.4,20.458H20.4A20.43,20.43,0,0,1,0,122.75V20.458A20.43,20.43,0,0,1,20.4,0Z" fill="#fff"/><g id="Gruppe_16307" data-name="Gruppe 16307" transform="translate(0 0.039)"><path id="Differenzmenge_616" data-name="Differenzmenge 616" d="M47.074,143.167H0l0,0L0,0H47.074V143.167h0Z" transform="translate(94.025 0.001)" fill="#ececec"/><path id="Differenzmenge_618" data-name="Differenzmenge 618" d="M47.074,143.167H0l0,0L0,0H47.074V143.167h0Z" transform="translate(46.95 0.001)" fill="#fff"/><path id="Differenzmenge_622" data-name="Differenzmenge 622" d="M46.95,143.168H11.016A11.019,11.019,0,0,1,0,132.152V11.016A11.015,11.015,0,0,1,11.016,0H46.95V143.168h0Z" transform="translate(0 0)" fill="#ececec"/><path id="Differenzmenge_624" data-name="Differenzmenge 624" d="M46.95,0H11.016A11.019,11.019,0,0,0,0,11.016V132.152a11.015,11.015,0,0,0,11.016,11.016H46.95V0h0Z" transform="translate(188.049 143.169) rotate(180)" fill="#fff"/></g></g><g id="Gruppe_16315" data-name="Gruppe 16315" transform="translate(8.393 5.246)"><rect id="Rechteck_9559" data-name="Rechteck 9559" width="30.425" height="59.801" rx="7" fill="#bcd9fa"/><rect id="Rechteck_9560" data-name="Rechteck 9560" width="30.425" height="17.311" rx="7" transform="translate(0 63.998)" fill="#ffd93b"/><rect id="Rechteck_9562" data-name="Rechteck 9562" width="65.572" height="31.474" rx="7" transform="translate(38.818 57.703)" fill="#bcd9fa"/><rect id="Rechteck_9571" data-name="Rechteck 9571" width="71.867" height="47.212" rx="7" transform="translate(38.818 2.098)" fill="#ececec"/><rect id="Rechteck_9563" data-name="Rechteck 9563" width="41.441" height="16.786" rx="7" transform="translate(44.064 95.472)" fill="#ffd93b"/><rect id="Rechteck_9572" data-name="Rechteck 9572" width="37.245" height="16.786" rx="7" transform="translate(114.882 4.197)" fill="#ffd93b"/><rect id="Rechteck_9564" data-name="Rechteck 9564" width="56.129" height="16.786" rx="7" transform="translate(93.374 95.472)" fill="#ffd93b"/><rect id="Rechteck_9574" data-name="Rechteck 9574" width="62.424" height="16.786" rx="7" transform="translate(173.109 26.753) rotate(90)" fill="#ffd93b"/><rect id="Rechteck_9575" data-name="Rechteck 9575" width="62.424" height="37.245" rx="7" transform="translate(152.126 26.753) rotate(90)" fill="#9cbf1d"/><rect id="Rechteck_9568" data-name="Rechteck 9568" width="68.195" height="12.59" rx="6.295" transform="translate(101.243 117.505)" fill="#bcd9fa"/><rect id="Rechteck_9567" data-name="Rechteck 9567" width="17.311" height="12.59" rx="6.295" transform="translate(157.372 95.472)" fill="#ececec"/><rect id="Rechteck_9573" data-name="Rechteck 9573" width="17.311" height="16.786" rx="7" transform="translate(156.323 4.197)" fill="#9cbf1d"/><rect id="Rechteck_9569" data-name="Rechteck 9569" width="22.032" height="13.114" rx="6.557" transform="translate(71.342 117.505)" fill="#9cbf1d"/><rect id="Rechteck_9570" data-name="Rechteck 9570" width="17.836" height="13.114" rx="6.557" transform="translate(41.441 117.505)" fill="#ececec"/><rect id="Rechteck_9561" data-name="Rechteck 9561" width="30.425" height="45.113" rx="7" transform="translate(0 85.506)" fill="#9cbf1d"/><path id="Differenzmenge_625" data-name="Differenzmenge 625" d="M11.885,31.475H0V0H11.885a7.008,7.008,0,0,1,7,7V24.475A7.008,7.008,0,0,1,11.885,31.475Z" transform="translate(85.505 57.703)" fill="#b2ceee"/><path id="Differenzmenge_626" data-name="Differenzmenge 626" d="M31.474,12.59H6.295A6.3,6.3,0,0,1,6.295,0H31.474V12.589Z" transform="translate(101.243 117.505)" fill="#b2ceee"/><path id="Differenzmenge_627" data-name="Differenzmenge 627" d="M18.179,47.211H0V0H18.179a7.008,7.008,0,0,1,7,7V40.212A7.008,7.008,0,0,1,18.179,47.211Z" transform="translate(85.506 2.098)" fill="#cfcfcf"/><path id="Differenzmenge_628" data-name="Differenzmenge 628" d="M17.835,16.787H7a7.008,7.008,0,0,1-7-7V7A7.008,7.008,0,0,1,7,0H17.835V16.786Z" transform="translate(114.881 4.196)" fill="#e8c430"/><path id="Differenzmenge_629" data-name="Differenzmenge 629" d="M17.835,62.425H7a7.008,7.008,0,0,1-7-7V7A7.008,7.008,0,0,1,7,0H17.835Z" transform="translate(114.881 26.753)" fill="#91b11a"/><path id="Differenzmenge_630" data-name="Differenzmenge 630" d="M39.343,16.786H7a7.008,7.008,0,0,1-7-7V7A7.008,7.008,0,0,1,7,0H39.343V16.785Z" transform="translate(93.374 95.473)" fill="#e8c430"/><path id="Differenzmenge_631" data-name="Differenzmenge 631" d="M1.311,13.115H0V0H1.311a6.557,6.557,0,0,1,0,13.115Z" transform="translate(85.506 117.504)" fill="#91b11a"/></g></g><path id="Vereinigungsmenge_508" data-name="Vereinigungsmenge 508" d="M0,100.008V0H25.081V100.008A12.772,12.772,0,0,1,12.54,113,12.772,12.772,0,0,1,0,100.008Z" transform="translate(627.542 513.547) rotate(-121)" fill="#c77b5d"/></g><ellipse id="Ellipse_2091" data-name="Ellipse 2091" cx="14.061" cy="14.061" rx="14.061" ry="14.061" transform="translate(593.247 487.98)" fill="#c77b5d"/><path id="Vereinigungsmenge_509" data-name="Vereinigungsmenge 509" d="M0,73.907S9.586,20.56,13.716,12.759s5.653-8.772,12.639-10.92A48.257,48.257,0,0,1,40.7.018L25.131,80.056Z" transform="translate(591.53 423.834) rotate(-3)" fill="#c77b5d"/><path id="Rechteck_10906" data-name="Rechteck 10906" d="M9,0H20.163a9,9,0,0,1,9,9V42.444a0,0,0,0,1,0,0H0a0,0,0,0,1,0,0V9A9,9,0,0,1,9,0Z" transform="translate(606.002 414.255) rotate(9)" fill="#50553d"/><ellipse id="Ellipse_2092" data-name="Ellipse 2092" cx="14.999" cy="14.686" rx="14.999" ry="14.686" transform="translate(605.12 403.613)" fill="#50553d"/></g></svg>